# xmcd
#
# Track frame offsets: 
#        150
#        20355
#        36773
#        54844
#        72204
#        99270
#        114518
#        155310
#        183050
#        201002
#        225053
#        245234
#        276769
#        293902
#
# Disc length: 4517 seconds
#
# Revision: 0
# Processed by: cddbd v1.5.2PL0 Copyright (c) Steve Scherf et al.
# Submitted via: ExactAudioCopy v1.0b4
#
DISCID=ad11a30e
DTITLE=Delta Moon - Life's a Song - Live Volume One
DYEAR=2013
DGENRE=Blues-Rock
TTITLE0=Hell Bound Train
TTITLE1=Black Cat Oil
TTITLE2=Lonely
TTITLE3=Get Gone
TTITLE4=Black Coffee
TTITLE5=You Got To Move
TTITLE6=Goin' Down South
TTITLE7=I'm A Witness
TTITLE8=Clear Blue Flame
TTITLE9=Stuck In Carolina
TTITLE10=Life's A Song
TTITLE11=Blind Spot
TTITLE12=Lap Dog
TTITLE13=Shake Your Hips
EXTD=
EXTT0=
EXTT1=
EXTT2=
EXTT3=
EXTT4=
EXTT5=
EXTT6=
EXTT7=
EXTT8=
EXTT9=
EXTT10=
EXTT11=
EXTT12=
EXTT13=
PLAYORDER=
